<?xml version="1.0" encoding="utf-8"?>
<!-- Generator: Adobe Illustrator 22.0.0, SVG Export Plug-In . SVG Version: 6.00 Build 0)  -->
<svg version="1.1" id="Layer_2" xmlns="http://www.w3.org/2000/svg" xmlns:xlink="http://www.w3.org/1999/xlink" x="0px" y="0px"
	 viewBox="0 0 183 44" style="enable-background:new 0 0 183 44;" xml:space="preserve">
<style type="text/css">
	.st0{fill-rule:evenodd;clip-rule:evenodd;}
	.st1{fill-rule:evenodd;clip-rule:evenodd;fill:#FEFEFE;}
	.st2{clip-path:url(#SVGID_2_);fill:#001153;}
	.st3{clip-path:url(#SVGID_2_);fill:#001254;}
	.st4{clip-path:url(#SVGID_2_);fill:#001354;}
	.st5{clip-path:url(#SVGID_2_);fill:#001455;}
	.st6{clip-path:url(#SVGID_2_);fill:#001556;}
	.st7{clip-path:url(#SVGID_2_);fill:#001656;}
	.st8{clip-path:url(#SVGID_2_);fill:#001757;}
	.st9{clip-path:url(#SVGID_2_);fill:#001858;}
	.st10{clip-path:url(#SVGID_2_);fill:#001958;}
	.st11{clip-path:url(#SVGID_2_);fill:#001A58;}
	.st12{clip-path:url(#SVGID_2_);fill:#001A59;}
	.st13{clip-path:url(#SVGID_2_);fill:#001B59;}
	.st14{clip-path:url(#SVGID_2_);fill:#001C5A;}
	.st15{clip-path:url(#SVGID_2_);fill:#001D5A;}
	.st16{clip-path:url(#SVGID_2_);fill:#001D5B;}
	.st17{clip-path:url(#SVGID_2_);fill:#001E5B;}
	.st18{clip-path:url(#SVGID_2_);fill:#001F5C;}
	.st19{clip-path:url(#SVGID_2_);fill:#00205C;}
	.st20{clip-path:url(#SVGID_2_);fill:#00205D;}
	.st21{clip-path:url(#SVGID_2_);fill:#00215D;}
	.st22{clip-path:url(#SVGID_2_);fill:#00225D;}
	.st23{clip-path:url(#SVGID_2_);fill:#00235E;}
	.st24{clip-path:url(#SVGID_2_);fill:#00245F;}
	.st25{clip-path:url(#SVGID_2_);fill:#00255F;}
	.st26{clip-path:url(#SVGID_2_);fill:#002660;}
	.st27{clip-path:url(#SVGID_2_);fill:#002761;}
	.st28{clip-path:url(#SVGID_2_);fill:#002861;}
	.st29{clip-path:url(#SVGID_2_);fill:#002961;}
	.st30{clip-path:url(#SVGID_2_);fill:#002962;}
	.st31{clip-path:url(#SVGID_2_);fill:#002A62;}
	.st32{clip-path:url(#SVGID_2_);fill:#002B63;}
	.st33{clip-path:url(#SVGID_2_);fill:#002C63;}
	.st34{clip-path:url(#SVGID_2_);fill:#002C64;}
	.st35{clip-path:url(#SVGID_2_);fill:#002D64;}
	.st36{clip-path:url(#SVGID_2_);fill:#002E65;}
	.st37{clip-path:url(#SVGID_2_);fill:#002F65;}
	.st38{clip-path:url(#SVGID_2_);fill:#002F66;}
	.st39{clip-path:url(#SVGID_2_);fill:#003066;}
	.st40{clip-path:url(#SVGID_2_);fill:#003166;}
	.st41{clip-path:url(#SVGID_2_);fill:#003267;}
	.st42{clip-path:url(#SVGID_2_);fill:#003368;}
	.st43{clip-path:url(#SVGID_2_);fill:#003468;}
	.st44{clip-path:url(#SVGID_2_);fill:#003569;}
	.st45{clip-path:url(#SVGID_2_);fill:#003669;}
	.st46{clip-path:url(#SVGID_2_);fill:#00366A;}
	.st47{clip-path:url(#SVGID_2_);fill:#00376A;}
	.st48{clip-path:url(#SVGID_2_);fill:#00386B;}
	.st49{clip-path:url(#SVGID_2_);fill:#00396B;}
	.st50{clip-path:url(#SVGID_2_);fill:#003A6C;}
	.st51{clip-path:url(#SVGID_2_);fill:#003B6C;}
	.st52{clip-path:url(#SVGID_2_);fill:#003C6D;}
	.st53{clip-path:url(#SVGID_2_);fill:#003D6E;}
	.st54{clip-path:url(#SVGID_2_);fill:#003E6E;}
	.st55{clip-path:url(#SVGID_2_);fill:#003F6F;}
	.st56{clip-path:url(#SVGID_2_);fill:#004070;}
	.st57{clip-path:url(#SVGID_2_);fill:#004170;}
	.st58{clip-path:url(#SVGID_2_);fill:#004270;}
	.st59{clip-path:url(#SVGID_2_);fill:#004271;}
	.st60{clip-path:url(#SVGID_2_);fill:#004371;}
	.st61{clip-path:url(#SVGID_2_);fill:#004472;}
	.st62{clip-path:url(#SVGID_2_);fill:#004572;}
	.st63{clip-path:url(#SVGID_2_);fill:#004573;}
	.st64{clip-path:url(#SVGID_2_);fill:#004673;}
	.st65{clip-path:url(#SVGID_2_);fill:#004774;}
	.st66{clip-path:url(#SVGID_2_);fill:#004874;}
	.st67{clip-path:url(#SVGID_2_);fill:#004875;}
	.st68{clip-path:url(#SVGID_2_);fill:#004975;}
	.st69{clip-path:url(#SVGID_2_);fill:#004A75;}
	.st70{clip-path:url(#SVGID_2_);fill:#004B76;}
	.st71{clip-path:url(#SVGID_2_);fill:#004C77;}
	.st72{clip-path:url(#SVGID_2_);fill:#004D77;}
	.st73{clip-path:url(#SVGID_2_);fill:#004E78;}
	.st74{clip-path:url(#SVGID_2_);fill:#004F79;}
	.st75{clip-path:url(#SVGID_2_);fill:#005079;}
	.st76{clip-path:url(#SVGID_2_);fill:#00517A;}
	.st77{clip-path:url(#SVGID_2_);fill:#00527A;}
	.st78{clip-path:url(#SVGID_2_);fill:#00537B;}
	.st79{clip-path:url(#SVGID_2_);fill:#00547B;}
	.st80{clip-path:url(#SVGID_2_);fill:#00547C;}
	.st81{clip-path:url(#SVGID_2_);fill:#00557C;}
	.st82{clip-path:url(#SVGID_2_);fill:#00567D;}
	.st83{clip-path:url(#SVGID_2_);fill:#00577D;}
	.st84{clip-path:url(#SVGID_2_);fill:#00577E;}
	.st85{clip-path:url(#SVGID_2_);fill:#00587E;}
	.st86{clip-path:url(#SVGID_2_);fill:#00597F;}
	.st87{clip-path:url(#SVGID_2_);fill:#005A7F;}
	.st88{clip-path:url(#SVGID_2_);fill:#005B80;}
	.st89{clip-path:url(#SVGID_2_);fill:#005C80;}
	.st90{clip-path:url(#SVGID_2_);fill:#005D81;}
	.st91{clip-path:url(#SVGID_2_);fill:#005E82;}
	.st92{clip-path:url(#SVGID_2_);fill:#005F82;}
	.st93{clip-path:url(#SVGID_2_);fill:#006083;}
	.st94{clip-path:url(#SVGID_2_);fill:#006184;}
	.st95{clip-path:url(#SVGID_2_);fill:#006284;}
	.st96{clip-path:url(#SVGID_2_);fill:#006384;}
	.st97{clip-path:url(#SVGID_2_);fill:#006385;}
	.st98{clip-path:url(#SVGID_2_);fill:#006485;}
	.st99{clip-path:url(#SVGID_2_);fill:#006585;}
	.st100{clip-path:url(#SVGID_2_);fill:#006586;}
	.st101{clip-path:url(#SVGID_2_);fill:#006686;}
	.st102{clip-path:url(#SVGID_2_);fill:#006786;}
	.st103{clip-path:url(#SVGID_2_);fill:#006886;}
	.st104{clip-path:url(#SVGID_2_);fill:#006887;}
	.st105{clip-path:url(#SVGID_2_);fill:#006987;}
	.st106{clip-path:url(#SVGID_2_);fill:#006A87;}
	.st107{clip-path:url(#SVGID_2_);fill:#006A88;}
	.st108{clip-path:url(#SVGID_2_);fill:#006B88;}
	.st109{clip-path:url(#SVGID_2_);fill:#006C88;}
	.st110{clip-path:url(#SVGID_2_);fill:#006C89;}
	.st111{clip-path:url(#SVGID_2_);fill:#006D89;}
	.st112{clip-path:url(#SVGID_2_);fill:#006E89;}
	.st113{clip-path:url(#SVGID_2_);fill:#006E8A;}
	.st114{clip-path:url(#SVGID_2_);fill:#006F8A;}
	.st115{clip-path:url(#SVGID_2_);fill:#00708A;}
	.st116{clip-path:url(#SVGID_2_);fill:#00718A;}
	.st117{clip-path:url(#SVGID_2_);fill:#00718B;}
	.st118{clip-path:url(#SVGID_2_);fill:#00728B;}
	.st119{clip-path:url(#SVGID_2_);fill:#00738B;}
	.st120{clip-path:url(#SVGID_2_);fill:#00738C;}
	.st121{clip-path:url(#SVGID_2_);fill:#00748C;}
	.st122{clip-path:url(#SVGID_2_);fill:#00758C;}
	.st123{clip-path:url(#SVGID_2_);fill:#00758D;}
	.st124{clip-path:url(#SVGID_2_);fill:#00768D;}
	.st125{clip-path:url(#SVGID_2_);fill:#00778D;}
	.st126{clip-path:url(#SVGID_2_);fill:#00778E;}
	.st127{clip-path:url(#SVGID_2_);fill:#00788E;}
	.st128{clip-path:url(#SVGID_2_);fill:#00798E;}
	.st129{clip-path:url(#SVGID_2_);fill:#007A8E;}
	.st130{clip-path:url(#SVGID_2_);fill:#007A8F;}
	.st131{clip-path:url(#SVGID_2_);fill:#007B8F;}
	.st132{clip-path:url(#SVGID_2_);fill:#007C8F;}
	.st133{clip-path:url(#SVGID_2_);fill:#007C90;}
	.st134{clip-path:url(#SVGID_2_);fill:#007D90;}
	.st135{clip-path:url(#SVGID_2_);fill:#007E90;}
	.st136{clip-path:url(#SVGID_2_);fill:#007E91;}
	.st137{clip-path:url(#SVGID_2_);fill:#007F91;}
	.st138{clip-path:url(#SVGID_2_);fill:#008091;}
	.st139{clip-path:url(#SVGID_2_);fill:#008092;}
	.st140{clip-path:url(#SVGID_2_);fill:#008192;}
	.st141{clip-path:url(#SVGID_2_);fill:#008292;}
	.st142{clip-path:url(#SVGID_2_);fill:#008392;}
	.st143{clip-path:url(#SVGID_2_);fill:#008393;}
	.st144{clip-path:url(#SVGID_2_);fill:#008493;}
	.st145{clip-path:url(#SVGID_2_);fill:#008593;}
	.st146{clip-path:url(#SVGID_2_);fill:#008594;}
	.st147{clip-path:url(#SVGID_2_);fill:#008694;}
	.st148{clip-path:url(#SVGID_2_);fill:#008794;}
	.st149{clip-path:url(#SVGID_2_);fill:#008795;}
	.st150{clip-path:url(#SVGID_2_);fill:#008895;}
	.st151{clip-path:url(#SVGID_2_);fill:#008995;}
	.st152{clip-path:url(#SVGID_2_);fill:#008996;}
	.st153{clip-path:url(#SVGID_2_);fill:#008A96;}
	.st154{clip-path:url(#SVGID_2_);fill:#008B96;}
	.st155{fill:#FEFEFE;}
	.st156{clip-path:url(#SVGID_4_);fill:#000049;}
	.st157{clip-path:url(#SVGID_4_);fill:#00024A;}
	.st158{clip-path:url(#SVGID_4_);fill:#00054C;}
	.st159{clip-path:url(#SVGID_4_);fill:#00074D;}
	.st160{clip-path:url(#SVGID_4_);fill:#00094F;}
	.st161{clip-path:url(#SVGID_4_);fill:#000C50;}
	.st162{clip-path:url(#SVGID_4_);fill:#000E51;}
	.st163{clip-path:url(#SVGID_4_);fill:#001053;}
	.st164{clip-path:url(#SVGID_4_);fill:#001354;}
	.st165{clip-path:url(#SVGID_4_);fill:#001556;}
	.st166{clip-path:url(#SVGID_4_);fill:#001757;}
	.st167{clip-path:url(#SVGID_4_);fill:#001958;}
	.st168{clip-path:url(#SVGID_4_);fill:#001C5A;}
	.st169{clip-path:url(#SVGID_4_);fill:#001E5B;}
	.st170{clip-path:url(#SVGID_4_);fill:#00205D;}
	.st171{clip-path:url(#SVGID_4_);fill:#00235E;}
	.st172{clip-path:url(#SVGID_4_);fill:#00255F;}
	.st173{clip-path:url(#SVGID_4_);fill:#002761;}
	.st174{clip-path:url(#SVGID_4_);fill:#002A62;}
	.st175{clip-path:url(#SVGID_4_);fill:#002C63;}
	.st176{clip-path:url(#SVGID_4_);fill:#002E65;}
	.st177{clip-path:url(#SVGID_4_);fill:#003166;}
	.st178{clip-path:url(#SVGID_4_);fill:#003368;}
	.st179{clip-path:url(#SVGID_4_);fill:#003569;}
	.st180{clip-path:url(#SVGID_4_);fill:#00386A;}
	.st181{clip-path:url(#SVGID_4_);fill:#003A6C;}
	.st182{clip-path:url(#SVGID_4_);fill:#003C6D;}
	.st183{clip-path:url(#SVGID_4_);fill:#003F6F;}
	.st184{clip-path:url(#SVGID_4_);fill:#004170;}
	.st185{clip-path:url(#SVGID_4_);fill:#004371;}
	.st186{clip-path:url(#SVGID_4_);fill:#004573;}
	.st187{clip-path:url(#SVGID_4_);fill:#004874;}
	.st188{clip-path:url(#SVGID_4_);fill:#004A76;}
	.st189{clip-path:url(#SVGID_4_);fill:#004C77;}
	.st190{clip-path:url(#SVGID_4_);fill:#004F78;}
	.st191{clip-path:url(#SVGID_4_);fill:#00517A;}
	.st192{clip-path:url(#SVGID_4_);fill:#00537B;}
	.st193{clip-path:url(#SVGID_4_);fill:#00567D;}
	.st194{clip-path:url(#SVGID_4_);fill:#00587E;}
	.st195{clip-path:url(#SVGID_4_);fill:#005A7F;}
	.st196{clip-path:url(#SVGID_4_);fill:#005D81;}
	.st197{clip-path:url(#SVGID_4_);fill:#005F82;}
	.st198{clip-path:url(#SVGID_4_);fill:#006184;}
	.st199{clip-path:url(#SVGID_4_);fill:#006385;}
	.st200{clip-path:url(#SVGID_4_);fill:#006686;}
	.st201{clip-path:url(#SVGID_4_);fill:#006887;}
	.st202{clip-path:url(#SVGID_4_);fill:#006A87;}
	.st203{clip-path:url(#SVGID_4_);fill:#006C88;}
	.st204{clip-path:url(#SVGID_4_);fill:#006E89;}
	.st205{clip-path:url(#SVGID_4_);fill:#00708A;}
	.st206{clip-path:url(#SVGID_4_);fill:#00728B;}
	.st207{clip-path:url(#SVGID_4_);fill:#00748C;}
	.st208{clip-path:url(#SVGID_4_);fill:#00778D;}
	.st209{clip-path:url(#SVGID_4_);fill:#00798E;}
	.st210{clip-path:url(#SVGID_4_);fill:#007B8F;}
	.st211{clip-path:url(#SVGID_4_);fill:#007D90;}
	.st212{clip-path:url(#SVGID_4_);fill:#007F91;}
	.st213{clip-path:url(#SVGID_4_);fill:#008192;}
	.st214{clip-path:url(#SVGID_4_);fill:#008393;}
	.st215{clip-path:url(#SVGID_4_);fill:#008594;}
	.st216{clip-path:url(#SVGID_4_);fill:#008895;}
	.st217{clip-path:url(#SVGID_4_);fill:#008A96;}
	.st218{clip-path:url(#SVGID_4_);fill:#008C97;}
	.st219{clip-path:url(#SVGID_4_);fill:#008E98;}
	.st220{clip-path:url(#SVGID_4_);fill:#009099;}
	.st221{clip-path:url(#SVGID_4_);fill:#00929A;}
	.st222{clip-path:url(#SVGID_4_);fill:#00949A;}
	.st223{clip-path:url(#SVGID_4_);fill:#00969B;}
	.st224{clip-path:url(#SVGID_4_);fill:#00999C;}
	.st225{clip-path:url(#SVGID_4_);fill:#009B9D;}
	.st226{clip-path:url(#SVGID_4_);fill:#009D9E;}
	.st227{clip-path:url(#SVGID_4_);fill:#009F9F;}
	.st228{clip-path:url(#SVGID_4_);fill:#00A1A0;}
	.st229{clip-path:url(#SVGID_4_);fill:#00A3A1;}
	.st230{clip-path:url(#SVGID_4_);fill:#00A5A2;}
	.st231{clip-path:url(#SVGID_4_);fill:#00A8A3;}
	.st232{clip-path:url(#SVGID_4_);fill:#00AAA4;}
	.st233{clip-path:url(#SVGID_4_);fill:#00ACA5;}
	.st234{clip-path:url(#SVGID_4_);fill:#00AEA6;}
	.st235{clip-path:url(#SVGID_4_);fill:#00B0A7;}
	.st236{clip-path:url(#SVGID_4_);fill:#00B2A8;}
	.st237{clip-path:url(#SVGID_4_);fill:#00B4A9;}
	.st238{clip-path:url(#SVGID_4_);fill:#00B5A9;}
	.st239{fill:#FEFBF4;}
	.st240{fill:#D0D2D4;}
	.st241{fill:none;stroke:#FEFEFE;stroke-width:0.5669;stroke-miterlimit:10;}
</style>
<title>logo</title>
<g>
	<path class="st0" d="M146.7,7.6h2c4,0,7.2,3.3,7.2,7.2v12.7c0.9,1.2,1.5,2.6,1.5,4v1.2c0,3.3-2.8,6.1-6.1,6.1h-1.3
		c-1.6,1.9-4.2,3-6.9,3c-2.8,0-5.3-1.2-6.9-3h-9.8c-1.8,1.9-4.2,3-7,3c-2.7,0-5.1-1.2-6.9-3h-5.3c-3.4,0-6.1-2.8-6.1-6.1v-1.2
		c0-1.4,0.6-2.8,1.5-4v-0.2c0-2.5,1.4-4.9,3.7-6l2.9-1.4l5.7-8.8c1.4-2.2,3.9-3.6,6.5-3.6h0.9c0.4-1.8,1.6-3.4,3.4-4
		c2.5-0.7,5-1.1,7.6-1.1h7.8C144.3,2.6,146.2,5,146.7,7.6L146.7,7.6z"/>
	<path class="st1" d="M144.7,9.7h4c2.9,0,5.3,2.3,5.3,5.1v13.7c0.8,0.7,1.4,1.9,1.4,3v1.2c0,2.2-1.8,4-4,4h-2.2
		c-1.3,1.9-3.5,3.2-6,3.2s-4.7-1.3-6-3.2h-11.8c-1.3,1.9-3.5,3.2-6,3.2c-2.5,0-4.6-1.3-5.8-3.2h-6.3c-2.2,0-4-1.8-4-4v-1.2
		c0-1.2,0.5-2.3,1.4-3v-1.2c0-1.8,1.1-3.4,2.7-4.1l3.3-1.6c0.1,0,0.1-0.1,0.2-0.2l5.8-9c1.2-1.8,2.9-2.7,4.9-2.7h2.9
		c0-0.4-0.1-0.6-0.1-0.8c0-1.4,0.8-2.8,2.1-3.3c2.3-0.6,4.7-0.9,7-0.9h7.8c2.2,0,3.3,2.3,3.3,4.2C144.7,9.1,144.7,9.4,144.7,9.7
		L144.7,9.7z"/>
	<path d="M119.4,37.8c-2.8,0-5-2.2-5-5s2.2-5.1,5-5.1c2.9,0,5.1,2.3,5.1,5.1S122.4,37.8,119.4,37.8L119.4,37.8z M119.4,28.8
		L119.4,28.8c-2.1,0-3.9,1.8-3.9,4c0,2.1,1.8,3.9,3.9,3.9c2.2,0,4-1.8,4-3.9C123.4,30.5,121.7,28.8,119.4,28.8L119.4,28.8z"/>
	<g>
		<defs>
			<path id="SVGID_1_" d="M151.2,30.2L151.2,30.2c0-0.7,0-10.5,0-15.3c0-1.4-1.2-2.6-2.6-2.6h-27c-1.1,0-2.1,0.6-2.7,1.5l-5.8,9.1
				c-0.4,0.5-0.8,0.8-1.3,1.1l-3.4,1.6c-0.7,0.4-1.1,1.1-1.1,1.8v2.8c0,0,0,0-0.1,0c-0.7,0-1.4,0.7-1.4,1.4v1.2
				c0,0.7,0.6,1.3,1.4,1.3h0.1h5.8c-0.2-1.1-0.2-2.2,0.2-3.5c0.9-2.3,3.2-4.1,5.7-4.2c3.6-0.1,6.7,2.8,6.7,6.4
				c0,0.5-0.1,0.9-0.2,1.3H137c-0.2-1.1-0.2-2.2,0.2-3.5c0.9-2.3,3.2-4.1,5.7-4.2c3.6-0.1,6.5,2.8,6.5,6.4c0,0.5,0,0.9-0.1,1.3h1.9
				h0.1c0.7,0,1.4-0.6,1.4-1.3v-1.2C152.8,30.9,152.1,30.2,151.2,30.2L151.2,30.2z"/>
		</defs>
		<clipPath id="SVGID_2_">
			<use xlink:href="#SVGID_1_"  style="overflow:visible;"/>
		</clipPath>
		<polygon class="st2" points="104.9,33.6 105.1,33.3 147.5,48.3 147.4,48.5 		"/>
		<polygon class="st3" points="104.9,33.5 105.1,33.1 147.5,48.1 147.5,48.4 		"/>
		<polygon class="st4" points="105.1,33.2 105.2,32.9 147.6,48 147.5,48.2 		"/>
		<polygon class="st5" points="105.1,33 105.2,32.8 147.7,47.7 147.6,48 		"/>
		<polygon class="st5" points="105.2,32.9 105.3,32.5 147.7,47.5 147.6,47.8 		"/>
		<polygon class="st6" points="105.3,32.6 105.4,32.3 147.9,47.3 147.7,47.6 		"/>
		<polygon class="st7" points="105.3,32.4 105.4,32.2 147.9,47.1 147.9,47.4 		"/>
		<polygon class="st8" points="105.4,32.3 105.5,31.9 148,46.9 147.9,47.3 		"/>
		<polygon class="st8" points="105.4,32.1 105.5,31.7 148.1,46.7 148,47 		"/>
		<polygon class="st9" points="105.5,31.8 105.6,31.6 148.1,46.6 148,46.8 		"/>
		<polygon class="st10" points="105.6,31.6 105.8,31.4 148.2,46.3 148.1,46.6 		"/>
		<polygon class="st11" points="105.6,31.5 105.8,31.1 148.2,46.1 148.2,46.4 		"/>
		<polygon class="st12" points="105.8,31.2 105.9,30.9 148.3,45.9 148.2,46.2 		"/>
		<polygon class="st13" points="105.8,31 105.9,30.8 148.4,45.7 148.3,46 		"/>
		<polygon class="st14" points="105.9,30.9 106,30.5 148.4,45.5 148.3,45.9 		"/>
		<polygon class="st15" points="106,30.7 106.1,30.3 148.6,45.3 148.4,45.6 		"/>
		<polygon class="st16" points="106,30.4 106.1,30.2 148.6,45.2 148.6,45.4 		"/>
		<polygon class="st17" points="106.1,30.2 106.2,30 148.7,44.9 148.6,45.3 		"/>
		<polygon class="st18" points="106.2,30.1 106.2,29.7 148.8,44.7 148.7,45 		"/>
		<polygon class="st19" points="106.2,29.8 106.3,29.5 148.8,44.6 148.7,44.8 		"/>
		<polygon class="st20" points="106.3,29.6 106.5,29.4 148.9,44.3 148.8,44.6 		"/>
		<polygon class="st21" points="106.3,29.5 106.5,29.1 148.9,44.1 148.9,44.5 		"/>
		<polygon class="st22" points="106.5,29.3 106.6,28.9 149,43.9 148.9,44.2 		"/>
		<polygon class="st23" points="106.6,29 106.6,28.8 149.1,43.8 149,44 		"/>
		<polygon class="st23" points="106.6,28.9 106.7,28.6 149.1,43.5 149,43.9 		"/>
		<polygon class="st24" points="106.7,28.7 106.8,28.3 149.3,43.3 149.1,43.6 		"/>
		<polygon class="st25" points="106.7,28.4 106.8,28.2 149.3,43.2 149.3,43.4 		"/>
		<polygon class="st26" points="106.8,28.2 106.9,28 149.4,42.9 149.3,43.2 		"/>
		<polygon class="st26" points="106.9,28.1 106.9,27.7 149.5,42.7 149.4,43.1 		"/>
		<polygon class="st27" points="106.9,27.8 107,27.5 149.5,42.5 149.4,42.8 		"/>
		<polygon class="st28" points="107,27.6 107.2,27.4 149.6,42.3 149.5,42.6 		"/>
		<polygon class="st29" points="107,27.5 107.2,27.1 149.6,42.1 149.6,42.5 		"/>
		<polygon class="st30" points="107.2,27.3 107.3,26.9 149.7,41.9 149.6,42.2 		"/>
		<polygon class="st31" points="107.3,27 107.3,26.8 149.8,41.8 149.7,42 		"/>
		<polygon class="st32" points="107.3,26.8 107.4,26.6 149.8,41.5 149.7,41.9 		"/>
		<polygon class="st33" points="107.4,26.7 107.5,26.3 150,41.3 149.8,41.6 		"/>
		<polygon class="st34" points="107.4,26.4 107.5,26.1 150,41.2 150,41.4 		"/>
		<polygon class="st35" points="107.5,26.2 107.6,26 150.1,40.9 150,41.2 		"/>
		<polygon class="st36" points="107.6,26.1 107.6,25.7 150.2,40.7 150.1,41.1 		"/>
		<polygon class="st37" points="107.6,25.9 107.7,25.5 150.2,40.5 150.1,40.8 		"/>
		<polygon class="st38" points="107.7,25.6 107.9,25.4 150.3,40.4 150.2,40.6 		"/>
		<polygon class="st39" points="107.7,25.5 107.9,25.2 150.3,40.1 150.3,40.5 		"/>
		<polygon class="st40" points="107.9,25.3 108,24.9 150.4,39.9 150.3,40.2 		"/>
		<polygon class="st41" points="108,25 108,24.8 150.5,39.8 150.4,40 		"/>
		<polygon class="st41" points="108,24.8 108.1,24.6 150.5,39.5 150.4,39.8 		"/>
		<polygon class="st42" points="108.1,24.7 108.2,24.3 150.7,39.3 150.5,39.7 		"/>
		<polygon class="st43" points="108.1,24.5 108.2,24.1 150.8,39.1 150.7,39.4 		"/>
		<polygon class="st44" points="108.2,24.2 108.3,24 150.8,39 150.7,39.2 		"/>
		<polygon class="st45" points="108.3,24.1 108.3,23.8 150.9,38.7 150.8,39.1 		"/>
		<polygon class="st46" points="108.3,23.9 108.4,23.5 150.9,38.5 150.8,38.8 		"/>
		<polygon class="st47" points="108.4,23.6 108.6,23.4 151,38.4 150.9,38.6 		"/>
		<polygon class="st48" points="108.4,23.4 108.6,23.2 151.1,38.1 151,38.5 		"/>
		<polygon class="st49" points="108.6,23.3 108.7,22.9 151.1,37.9 151,38.3 		"/>
		<polygon class="st49" points="108.7,23.1 108.7,22.7 151.2,37.8 151.1,38 		"/>
		<polygon class="st50" points="108.7,22.8 108.8,22.6 151.2,37.6 151.1,37.8 		"/>
		<polygon class="st51" points="108.8,22.7 108.9,22.4 151.4,37.3 151.2,37.7 		"/>
		<polygon class="st52" points="108.8,22.5 108.9,22.1 151.5,37.1 151.4,37.4 		"/>
		<polygon class="st52" points="108.9,22.2 109,22 151.5,37 151.4,37.2 		"/>
		<polygon class="st53" points="109,22.1 109,21.8 151.6,36.7 151.5,37.1 		"/>
		<polygon class="st54" points="109,21.9 109.1,21.5 151.6,36.5 151.5,36.9 		"/>
		<polygon class="st55" points="109.1,21.7 109.3,21.4 151.7,36.4 151.6,36.6 		"/>
		<polygon class="st55" points="109.1,21.4 109.3,21.2 151.8,36.2 151.7,36.4 		"/>
		<polygon class="st56" points="109.3,21.3 109.4,21 151.8,35.9 151.7,36.3 		"/>
		<polygon class="st57" points="109.4,21.1 109.4,20.7 151.9,35.7 151.8,36 		"/>
		<polygon class="st58" points="109.4,20.8 109.5,20.6 151.9,35.6 151.8,35.8 		"/>
		<polygon class="st59" points="109.5,20.7 109.6,20.4 152.1,35.3 151.9,35.7 		"/>
		<polygon class="st60" points="109.5,20.5 109.6,20.1 152.2,35.1 152.1,35.5 		"/>
		<polygon class="st61" points="109.6,20.2 109.7,20 152.2,35 152.1,35.2 		"/>
		<polygon class="st62" points="109.7,20 109.7,19.8 152.3,34.7 152.2,35.1 		"/>
		<polygon class="st63" points="109.7,19.9 109.9,19.5 152.3,34.5 152.2,34.9 		"/>
		<polygon class="st64" points="109.9,19.7 110,19.3 152.4,34.4 152.3,34.6 		"/>
		<polygon class="st65" points="109.9,19.4 110,19.2 152.5,34.2 152.4,34.4 		"/>
		<polygon class="st66" points="110,19.3 110.1,19 152.5,33.9 152.4,34.3 		"/>
		<polygon class="st67" points="110.1,19.1 110.1,18.7 152.6,33.7 152.5,34 		"/>
		<polygon class="st68" points="110.1,18.8 110.2,18.6 152.6,33.6 152.5,33.8 		"/>
		<polygon class="st69" points="110.2,18.7 110.3,18.4 152.8,33.3 152.6,33.7 		"/>
		<polygon class="st70" points="110.2,18.5 110.3,18.1 152.9,33.1 152.8,33.5 		"/>
		<polygon class="st70" points="110.3,18.3 110.4,18 152.9,33 152.8,33.2 		"/>
		<polygon class="st71" points="110.4,18 110.4,17.8 153,32.8 152.9,33 		"/>
		<polygon class="st72" points="110.4,17.9 110.6,17.6 153,32.5 152.9,32.9 		"/>
		<polygon class="st73" points="110.6,17.7 110.7,17.3 153.1,32.3 153,32.6 		"/>
		<polygon class="st73" points="110.6,17.4 110.7,17.2 153.2,32.2 153.1,32.4 		"/>
		<polygon class="st74" points="110.7,17.3 110.8,17 153.2,31.9 153.1,32.3 		"/>
		<polygon class="st75" points="110.8,17.1 110.9,16.7 153.3,31.7 153.2,32.1 		"/>
		<polygon class="st76" points="110.8,16.9 110.9,16.6 153.3,31.6 153.2,31.8 		"/>
		<polygon class="st76" points="110.9,16.6 111,16.4 153.5,31.4 153.3,31.7 		"/>
		<polygon class="st77" points="110.9,16.5 111,16.2 153.6,31.1 153.5,31.5 		"/>
		<polygon class="st78" points="111,16.3 111.1,15.9 153.6,31 153.5,31.2 		"/>
		<polygon class="st79" points="111.1,16 111.3,15.8 153.7,30.8 153.6,31 		"/>
		<polygon class="st80" points="111.1,15.9 111.3,15.6 153.7,30.5 153.6,30.9 		"/>
		<polygon class="st81" points="111.3,15.7 111.4,15.3 153.8,30.3 153.7,30.7 		"/>
		<polygon class="st82" points="111.3,15.5 111.4,15.2 153.9,30.2 153.8,30.4 		"/>
		<polygon class="st83" points="111.4,15.3 111.5,15 153.9,30 153.8,30.3 		"/>
		<polygon class="st84" points="111.5,15.1 111.6,14.8 154,29.7 153.9,30.1 		"/>
		<polygon class="st85" points="111.5,14.9 111.6,14.6 154,29.6 153.9,29.8 		"/>
		<polygon class="st86" points="111.6,14.6 111.7,14.4 154.2,29.4 154,29.6 		"/>
		<polygon class="st87" points="111.6,14.5 111.7,14.2 154.3,29.1 154.2,29.5 		"/>
		<polygon class="st87" points="111.7,14.3 111.8,13.9 154.3,28.9 154.2,29.3 		"/>
		<polygon class="st88" points="111.8,14.1 112,13.8 154.4,28.8 154.3,29 		"/>
		<polygon class="st89" points="111.8,13.9 112,13.6 154.4,28.6 154.3,28.9 		"/>
		<polygon class="st90" points="112,13.7 112.1,13.4 154.5,28.3 154.4,28.7 		"/>
		<polygon class="st90" points="112,13.5 112.1,13.2 154.6,28.2 154.5,28.4 		"/>
		<polygon class="st91" points="112.1,13.2 112.2,13 154.6,28 154.5,28.3 		"/>
		<polygon class="st92" points="112.2,13.1 112.3,12.8 154.8,27.7 154.6,28.1 		"/>
		<polygon class="st93" points="112.2,12.9 112.3,12.5 154.8,27.6 154.6,27.8 		"/>
		<polygon class="st93" points="112.3,12.6 112.4,12.4 154.9,27.4 154.8,27.6 		"/>
		<polygon class="st94" points="112.3,12.5 112.4,12.2 155,27.1 154.9,27.5 		"/>
		<polygon class="st95" points="112.4,12.3 112.5,11.9 155,26.9 154.9,27.3 		"/>
		<polygon class="st96" points="112.5,12.1 112.7,11.8 155.1,26.8 155,27 		"/>
		<polygon class="st97" points="112.5,11.8 112.7,11.6 155.1,26.6 155,26.9 		"/>
		<polygon class="st98" points="112.7,11.7 112.8,11.4 155.2,26.3 155.1,26.7 		"/>
		<polygon class="st99" points="112.7,11.5 112.8,11.2 155.3,26.2 155.2,26.4 		"/>
		<polygon class="st100" points="112.8,11.2 112.9,11 155.3,26 155.2,26.2 		"/>
		<polygon class="st101" points="112.9,11.1 113,10.8 155.5,25.7 155.3,26.1 		"/>
		<polygon class="st102" points="112.9,10.9 113,10.5 155.5,25.5 155.5,25.9 		"/>
		<polygon class="st103" points="113,10.7 113.1,10.4 155.6,25.4 155.5,25.6 		"/>
		<polygon class="st104" points="113,10.5 113.1,10.2 155.7,25.2 155.6,25.5 		"/>
		<polygon class="st105" points="113.1,10.3 113.2,10 155.7,24.9 155.6,25.3 		"/>
		<polygon class="st106" points="113.2,10.1 113.4,9.8 155.8,24.8 155.7,25 		"/>
		<polygon class="st107" points="113.2,9.8 113.4,9.6 155.8,24.6 155.8,24.9 		"/>
		<polygon class="st108" points="113.4,9.7 113.5,9.4 155.9,24.3 155.8,24.7 		"/>
		<polygon class="st109" points="113.4,9.5 113.5,9.1 156,24.2 155.9,24.5 		"/>
		<polygon class="st110" points="113.5,9.3 113.6,9 156,24 155.9,24.2 		"/>
		<polygon class="st111" points="113.6,9.1 113.7,8.8 156.2,23.8 156,24.1 		"/>
		<polygon class="st112" points="113.6,8.9 113.7,8.6 156.2,23.5 156.2,23.9 		"/>
		<polygon class="st113" points="113.7,8.7 113.8,8.4 156.3,23.4 156.2,23.6 		"/>
		<polygon class="st114" points="113.7,8.4 113.8,8.2 156.4,23.2 156.3,23.5 		"/>
		<polygon class="st115" points="113.8,8.3 113.9,8 156.4,22.9 156.3,23.3 		"/>
		<polygon class="st116" points="113.9,8.1 114.1,7.9 156.5,22.8 156.4,23.1 		"/>
		<polygon class="st117" points="113.9,7.9 114.1,7.6 156.5,22.6 156.5,22.8 		"/>
		<polygon class="st118" points="114.1,7.7 114.2,7.4 156.6,22.4 156.5,22.7 		"/>
		<polygon class="st119" points="114.1,7.5 114.2,7.2 156.7,22.1 156.6,22.5 		"/>
		<polygon class="st120" points="114.2,7.3 114.3,7 156.7,22 156.6,22.2 		"/>
		<polygon class="st121" points="114.3,7.2 114.4,6.8 156.9,21.8 156.7,22.1 		"/>
		<polygon class="st122" points="114.3,6.9 114.4,6.6 156.9,21.5 156.9,21.9 		"/>
		<polygon class="st123" points="114.4,6.7 114.5,6.5 157,21.4 156.9,21.7 		"/>
		<polygon class="st124" points="114.4,6.5 114.5,6.2 157.1,21.2 157,21.5 		"/>
		<polygon class="st125" points="114.5,6.3 114.6,6 157.1,21 157,21.3 		"/>
		<polygon class="st126" points="114.6,6.1 114.8,5.8 157.2,20.8 157.1,21.1 		"/>
		<polygon class="st127" points="114.6,5.9 114.8,5.6 157.2,20.6 157.2,20.8 		"/>
		<polygon class="st128" points="114.8,5.8 114.9,5.4 157.3,20.4 157.2,20.7 		"/>
		<polygon class="st129" points="114.8,5.5 114.9,5.2 157.4,20.1 157.3,20.5 		"/>
		<polygon class="st130" points="114.9,5.3 115,5 157.4,20 157.3,20.2 		"/>
		<polygon class="st131" points="115,5 115.1,4.8 157.6,19.8 157.4,20.1 		"/>
		<polygon class="st132" points="115,4.9 115.1,4.6 157.6,19.5 157.6,19.9 		"/>
		<polygon class="st133" points="115.1,4.7 115.2,4.5 157.7,19.4 157.6,19.7 		"/>
		<polygon class="st134" points="115.1,4.5 115.2,4.2 157.8,19.2 157.7,19.4 		"/>
		<polygon class="st135" points="115.2,4.3 115.3,4 157.8,19 157.7,19.3 		"/>
		<polygon class="st136" points="115.3,4.1 115.5,3.8 157.9,18.7 157.8,19.1 		"/>
		<polygon class="st137" points="115.3,3.9 115.5,3.6 157.9,18.6 157.9,18.8 		"/>
		<polygon class="st138" points="115.5,3.8 115.6,3.4 158,18.4 157.9,18.7 		"/>
		<polygon class="st139" points="115.6,3.5 115.6,3.2 158.1,18.1 158,18.5 		"/>
		<polygon class="st140" points="115.6,3.3 115.7,3.1 158.1,18 158,18.3 		"/>
		<polygon class="st141" points="115.7,3.1 115.8,2.8 158.3,17.8 158.1,18.1 		"/>
		<polygon class="st142" points="115.7,2.9 115.8,2.6 158.3,17.6 158.3,17.9 		"/>
		<polygon class="st143" points="115.8,2.7 115.9,2.4 158.4,17.4 158.3,17.7 		"/>
		<polygon class="st144" points="115.9,2.5 115.9,2.2 158.5,17.2 158.4,17.4 		"/>
		<polygon class="st145" points="115.9,2.4 116,2 158.5,17 158.4,17.3 		"/>
		<polygon class="st146" points="116,2.1 116.2,1.8 158.6,16.7 158.5,17.1 		"/>
		<polygon class="st147" points="116,1.9 116.2,1.7 158.6,16.6 158.6,16.9 		"/>
		<polygon class="st148" points="116.2,1.7 116.3,1.4 158.7,16.4 158.6,16.7 		"/>
		<polygon class="st149" points="116.3,1.5 116.3,1.2 158.8,16.2 158.7,16.5 		"/>
		<polygon class="st150" points="116.3,1.3 116.4,1.1 158.8,16 158.7,16.3 		"/>
		<polygon class="st151" points="116.4,1.1 116.5,0.8 159,15.8 158.8,16 		"/>
		<polygon class="st152" points="116.4,1 116.5,0.6 159,15.6 159,15.9 		"/>
		<polygon class="st153" points="116.5,0.7 116.6,0.4 159.1,15.3 159,15.7 		"/>
		<polygon class="st154" points="116.6,0.5 116.5,0.5 159.1,15.5 159.1,15.5 		"/>
	</g>
	<path d="M151.4,34.7h-2.8l0.2-0.8c0.1-0.4,0.1-0.8,0.1-1.2c0-1.6-0.6-3-1.8-4.2c-1.2-1.1-2.6-1.6-4.2-1.5c-2.2,0-4.3,1.5-5.1,3.7
		c-0.4,1.1-0.5,2.1-0.2,3.2l0.1,0.8h-12.7l0.1-0.8c0.1-0.4,0.1-0.8,0.1-1.2c0-1.6-0.6-3-1.8-4.2c-1.1-1.1-2.6-1.6-4.1-1.5
		c-2.3,0-4.4,1.5-5.3,3.7c-0.4,1.1-0.5,2.1-0.2,3.2l0.2,0.8h-6.8c-1.1,0-2-0.9-2-2v-1.2c0-0.9,0.6-1.6,1.5-1.9v-2.3
		c0-0.9,0.5-1.9,1.4-2.3l3.3-1.5c0.5-0.2,0.8-0.6,1.1-0.9l6-9.1c0.7-1.1,1.9-1.8,3.2-1.8h27c1.8,0,3.2,1.4,3.2,3.2v14.8
		c0.8,0.2,1.5,0.9,1.5,1.9v1.2C153.3,33.8,152.4,34.7,151.4,34.7L151.4,34.7z M150.1,33.5L150.1,33.5h1.3c0.4,0,0.7-0.4,0.7-0.7
		v-1.2c0-0.5-0.4-0.8-0.8-0.8c-0.4,0-0.6-0.2-0.6-0.6V14.9c0-1.1-0.9-1.9-2-1.9h-27c-0.8,0-1.6,0.4-2.1,1.2l-6,9
		c-0.4,0.6-0.9,1.1-1.5,1.4l-3.3,1.6c-0.5,0.2-0.8,0.7-0.8,1.2v2.8c0,0.4-0.4,0.6-0.7,0.6c-0.5,0-0.8,0.4-0.8,0.8v1.2
		c0,0.4,0.4,0.7,0.8,0.7h5.3c-0.1-1.1,0-2.1,0.5-3c0.9-2.7,3.5-4.6,6.2-4.7c1.9,0,3.7,0.7,5.1,2c1.3,1.3,2.1,3,2.1,5
		c0,0.2,0,0.5-0.1,0.7h9.9c-0.1-1.1,0-2.1,0.4-3c1.1-2.7,3.5-4.6,6.3-4.7c1.9,0,3.6,0.7,5,2c1.4,1.3,2.1,3,2.1,5
		C150.1,33,150.1,33.2,150.1,33.5L150.1,33.5z"/>
	<path d="M143.2,37.8c-2.8,0-5.1-2.2-5.1-5s2.3-5.1,5.1-5.1s5.1,2.3,5.1,5.1S146,37.8,143.2,37.8L143.2,37.8z M143.2,28.8
		L143.2,28.8c-2.2,0-4,1.8-4,4c0,2.1,1.8,3.9,4,3.9c2.1,0,3.9-1.8,3.9-3.9C147,30.5,145.3,28.8,143.2,28.8L143.2,28.8z"/>
	<path class="st155" d="M116.4,22.4l4.1-6.4c0.4-0.4,0.7-0.6,1.3-0.6h4.3c0.6,0,1.1,0.5,1.1,0.9v6.4c0,0.5-0.5,0.9-1.1,0.9H117
		C116.4,23.6,116,22.9,116.4,22.4L116.4,22.4z"/>
	<path d="M126.1,24.2H117c-0.5,0-0.9-0.2-1.2-0.7c-0.2-0.5-0.2-1.1,0-1.5l4.2-6.3c0.4-0.6,1.1-0.9,1.8-0.9h4.3
		c0.9,0,1.6,0.7,1.6,1.5v6.4C127.7,23.5,127,24.2,126.1,24.2L126.1,24.2z M121.8,15.9L121.8,15.9c-0.4,0-0.6,0.1-0.7,0.4l-4.2,6.4
		c-0.1,0.1,0,0.2,0,0.2s0,0.1,0.1,0.1h9.1c0.2,0,0.4-0.2,0.4-0.4v-6.4c0-0.2-0.1-0.4-0.4-0.4H121.8z"/>
	<path class="st155" d="M136.4,23.6h-5.7c-0.6,0-1.1-0.5-1.1-0.9v-6.4c0-0.5,0.5-0.9,1.1-0.9h5.7c0.6,0,1.1,0.5,1.1,0.9v6.4
		C137.4,23.2,137,23.6,136.4,23.6L136.4,23.6z"/>
	<path d="M136.4,24.2h-5.7c-0.9,0-1.6-0.7-1.6-1.5v-6.4c0-0.8,0.7-1.5,1.6-1.5h5.7c0.9,0,1.6,0.7,1.6,1.5v6.4
		C138,23.5,137.3,24.2,136.4,24.2L136.4,24.2z M130.7,15.9L130.7,15.9c-0.2,0-0.5,0.1-0.5,0.4v6.4c0,0.1,0.2,0.4,0.5,0.4h5.7
		c0.2,0,0.4-0.2,0.4-0.4v-6.4c0-0.2-0.1-0.4-0.4-0.4H130.7z"/>
	<path class="st155" d="M146.7,23.6H141c-0.6,0-1.1-0.5-1.1-0.9v-6.4c0-0.5,0.5-0.9,1.1-0.9h5.7c0.6,0,1.1,0.5,1.1,0.9v6.4
		C147.7,23.2,147.3,23.6,146.7,23.6L146.7,23.6z"/>
	<path d="M146.7,24.2H141c-0.9,0-1.6-0.7-1.6-1.5v-6.4c0-0.8,0.7-1.5,1.6-1.5h5.7c0.9,0,1.6,0.7,1.6,1.5v6.4
		C148.3,23.5,147.6,24.2,146.7,24.2L146.7,24.2z M141,15.9L141,15.9c-0.2,0-0.5,0.1-0.5,0.4v6.4c0,0.1,0.2,0.4,0.5,0.4h5.7
		c0.2,0,0.4-0.2,0.4-0.4v-6.4c0-0.2-0.1-0.4-0.4-0.4H141z"/>
	<g>
		<defs>
			<path id="SVGID_3_" d="M141.4,10.5h-7.8c-2.1,0-4.2-0.4-6.3-0.9c-0.5-0.1-0.5-1.4,0-1.5c2.1-0.6,4.2-0.9,6.3-0.9h7.8
				c0.5,0,0.9,0.8,0.9,1.8C142.4,9.7,141.9,10.5,141.4,10.5L141.4,10.5z"/>
		</defs>
		<clipPath id="SVGID_4_">
			<use xlink:href="#SVGID_3_"  style="overflow:visible;"/>
		</clipPath>
		<rect x="131.4" y="5.9" transform="matrix(0.6 -0.8 0.8 0.6 42.7073 110.596)" class="st156" width="1.2" height="13.4"/>
		<polygon class="st157" points="126.9,8.1 127,8 137.8,16 137.7,16.2 		"/>
		<polygon class="st158" points="126.9,8 127,7.9 137.8,15.9 137.7,16.2 		"/>
		<polygon class="st159" points="127,7.9 127.2,7.7 137.9,15.9 137.8,16 		"/>
		<polygon class="st160" points="127.2,7.9 127.3,7.6 137.9,15.8 137.8,15.9 		"/>
		<polygon class="st161" points="127.2,7.7 127.3,7.6 138,15.7 137.9,15.8 		"/>
		<polygon class="st162" points="127.3,7.6 127.4,7.5 138.1,15.6 138,15.7 		"/>
		<polygon class="st163" points="127.3,7.5 127.4,7.4 138.1,15.5 138,15.7 		"/>
		<polygon class="st164" points="127.4,7.4 127.5,7.3 138.3,15.5 138.1,15.6 		"/>
		<polygon class="st165" points="127.5,7.4 127.6,7.2 138.3,15.3 138.1,15.5 		"/>
		<polygon class="st166" points="127.5,7.3 127.6,7.2 138.4,15.2 138.3,15.3 		"/>
		<polygon class="st167" points="127.6,7.2 127.7,7 138.5,15.1 138.4,15.2 		"/>
		<polygon class="st168" points="127.7,7 127.7,6.9 138.5,15 138.4,15.2 		"/>
		<polygon class="st169" points="127.7,6.9 127.9,6.8 138.6,15 138.5,15.1 		"/>
		<polygon class="st170" points="127.9,6.9 128,6.7 138.6,14.9 138.6,15 		"/>
		<polygon class="st171" points="127.9,6.8 128,6.7 138.7,14.8 138.6,14.9 		"/>
		<polygon class="st172" points="128,6.7 128.1,6.6 138.8,14.6 138.7,14.8 		"/>
		<polygon class="st173" points="128.1,6.6 128.1,6.5 138.8,14.5 138.7,14.8 		"/>
		<polygon class="st174" points="128.1,6.5 128.2,6.3 139,14.5 138.8,14.6 		"/>
		<polygon class="st175" points="128.2,6.5 128.3,6.2 139,14.4 139,14.5 		"/>
		<polygon class="st176" points="128.2,6.3 128.3,6.2 139.1,14.3 139,14.4 		"/>
		<polygon class="st177" points="128.3,6.2 128.4,6.1 139.2,14.2 139.1,14.3 		"/>
		<polygon class="st178" points="128.4,6.1 128.4,6 139.2,14.1 139.1,14.3 		"/>
		<polygon class="st179" points="128.4,6 128.6,5.9 139.3,14.1 139.2,14.2 		"/>
		<polygon class="st180" points="128.6,6 128.7,5.8 139.3,13.9 139.3,14.1 		"/>
		<polygon class="st181" points="128.6,5.9 128.7,5.8 139.4,13.8 139.3,13.9 		"/>
		<polygon class="st182" points="128.7,5.8 128.8,5.6 139.6,13.7 139.4,13.8 		"/>
		<polygon class="st183" points="128.8,5.6 128.8,5.5 139.6,13.6 139.4,13.8 		"/>
		<polygon class="st184" points="128.8,5.5 128.9,5.4 139.7,13.6 139.6,13.7 		"/>
		<polygon class="st185" points="128.9,5.5 129,5.3 139.7,13.5 139.7,13.6 		"/>
		<polygon class="st186" points="128.9,5.4 129,5.3 139.8,13.4 139.7,13.5 		"/>
		<polygon class="st187" points="129,5.3 129.1,5.2 139.9,13.2 139.8,13.4 		"/>
		<polygon class="st188" points="129.1,5.2 129.1,5 139.9,13.1 139.8,13.4 		"/>
		<polygon class="st189" points="129.1,5 129.3,4.9 140,13.1 139.9,13.2 		"/>
		<polygon class="st190" points="129.3,5 129.4,4.8 140,13 140,13.1 		"/>
		<polygon class="st191" points="129.3,4.9 129.4,4.8 140.1,12.9 140,13 		"/>
		<polygon class="st192" points="129.4,4.8 129.5,4.7 140.3,12.8 140.1,12.9 		"/>
		<polygon class="st193" points="129.5,4.7 129.6,4.6 140.3,12.6 140.1,12.9 		"/>
		<polygon class="st194" points="129.5,4.6 129.6,4.5 140.4,12.6 140.3,12.8 		"/>
		<polygon class="st195" points="129.6,4.6 129.7,4.3 140.5,12.5 140.4,12.6 		"/>
		<polygon class="st196" points="129.6,4.5 129.7,4.3 140.5,12.4 140.4,12.5 		"/>
		<polygon class="st197" points="129.7,4.3 129.8,4.2 140.6,12.3 140.5,12.4 		"/>
		<polygon class="st198" points="129.8,4.2 130,4.1 140.6,12.2 140.5,12.4 		"/>
		<polygon class="st199" points="129.8,4.1 130,4 140.7,12.2 140.6,12.3 		"/>
		<polygon class="st200" points="130,4.1 130.1,3.9 140.8,12.1 140.7,12.2 		"/>
		<polygon class="st201" points="130,4 130.1,3.9 140.8,11.9 140.7,12.1 		"/>
		<polygon class="st202" points="130.1,3.9 130.2,3.8 141,11.8 140.8,11.9 		"/>
		<polygon class="st203" points="130.2,3.8 130.3,3.6 141,11.7 140.8,11.9 		"/>
		<polygon class="st204" points="130.2,3.6 130.3,3.5 141.1,11.7 141,11.8 		"/>
		<polygon class="st205" points="130.3,3.6 130.4,3.4 141.2,11.6 141.1,11.7 		"/>
		<polygon class="st206" points="130.3,3.5 130.4,3.4 141.2,11.5 141.1,11.6 		"/>
		<polygon class="st207" points="130.4,3.4 130.5,3.3 141.3,11.4 141.2,11.5 		"/>
		<polygon class="st208" points="130.5,3.3 130.7,3.2 141.3,11.2 141.2,11.5 		"/>
		<polygon class="st209" points="130.5,3.2 130.7,3.1 141.4,11.2 141.3,11.4 		"/>
		<polygon class="st210" points="130.7,3.2 130.8,2.9 141.5,11.1 141.4,11.2 		"/>
		<polygon class="st211" points="130.7,3.1 130.8,2.9 141.5,11 141.4,11.1 		"/>
		<polygon class="st212" points="130.8,2.9 130.9,2.8 141.7,10.9 141.5,11 		"/>
		<polygon class="st213" points="130.9,2.8 131,2.7 141.7,10.8 141.5,11 		"/>
		<polygon class="st214" points="130.9,2.7 131,2.6 141.8,10.8 141.7,10.9 		"/>
		<polygon class="st215" points="131,2.7 131.1,2.5 141.9,10.7 141.8,10.8 		"/>
		<polygon class="st216" points="131,2.6 131.1,2.5 141.9,10.5 141.8,10.7 		"/>
		<polygon class="st217" points="131.1,2.5 131.2,2.4 142,10.4 141.9,10.5 		"/>
		<polygon class="st218" points="131.2,2.4 131.4,2.2 142,10.3 141.9,10.5 		"/>
		<polygon class="st219" points="131.2,2.2 131.4,2.1 142.1,10.3 142,10.4 		"/>
		<polygon class="st220" points="131.4,2.2 131.5,2 142.2,10.2 142.1,10.3 		"/>
		<polygon class="st221" points="131.5,2.1 131.5,2 142.2,10.1 142.1,10.2 		"/>
		<polygon class="st222" points="131.5,2 131.6,1.9 142.4,10 142.2,10.1 		"/>
		<polygon class="st223" points="131.6,1.9 131.7,1.8 142.4,9.8 142.4,10.1 		"/>
		<polygon class="st224" points="131.6,1.8 131.7,1.7 142.5,9.8 142.4,10 		"/>
		<polygon class="st225" points="131.7,1.8 131.8,1.5 142.6,9.7 142.5,9.8 		"/>
		<polygon class="st226" points="131.8,1.7 131.8,1.5 142.6,9.6 142.5,9.7 		"/>
		<polygon class="st227" points="131.8,1.5 131.9,1.4 142.7,9.5 142.6,9.6 		"/>
		<polygon class="st228" points="131.9,1.4 132.1,1.3 142.7,9.4 142.7,9.6 		"/>
		<polygon class="st229" points="131.9,1.3 132.1,1.2 142.8,9.4 142.7,9.5 		"/>
		<polygon class="st230" points="132.1,1.3 132.2,1.1 142.9,9.3 142.8,9.4 		"/>
		<polygon class="st231" points="132.2,1.2 132.2,1.1 142.9,9.1 142.8,9.3 		"/>
		<polygon class="st232" points="132.2,1.1 132.3,1 143.1,9 142.9,9.1 		"/>
		<polygon class="st233" points="132.3,1 132.4,0.8 143.1,8.9 143.1,9.1 		"/>
		<polygon class="st234" points="132.3,0.8 132.4,0.7 143.2,8.9 143.1,9 		"/>
		<polygon class="st235" points="132.4,0.8 132.5,0.6 143.3,8.8 143.2,8.9 		"/>
		<polygon class="st236" points="132.5,0.7 132.5,0.6 143.3,8.7 143.2,8.8 		"/>
		<polygon class="st237" points="132.5,0.6 132.7,0.5 143.4,8.6 143.3,8.7 		"/>
		<polygon class="st238" points="132.7,0.5 132.8,0.4 143.4,8.4 143.4,8.7 		"/>
		<polygon class="st238" points="132.7,0.4 132.8,0.3 143.5,8.4 143.4,8.6 		"/>
	</g>
	<path d="M141.4,11h-7.8c-2.1,0-4.3-0.4-6.4-0.9c-0.2-0.1-0.6-0.6-0.6-1.2c0-0.7,0.4-1.2,0.6-1.3c2.1-0.6,4.3-0.9,6.4-0.9h7.8
		c0.7,0,1.3,0.9,1.3,2.2C142.7,10.1,142.1,11,141.4,11L141.4,11z M133.6,7.7L133.6,7.7c-2.1,0-4,0.2-6.1,0.8c0,0.1-0.1,0.2-0.1,0.4
		c0,0,0.1,0.1,0.1,0.2c2.1,0.6,4,0.9,6.1,0.9h7.8c0.4,0,0.6-0.6,0.6-1.2c0-0.7-0.2-1.2-0.6-1.2H133.6z"/>
	<path class="st239" d="M135.3,25.9c0-0.4,0.2-0.6,0.6-0.6h2.3c0.4,0,0.7,0.2,0.7,0.6c0,0.4-0.4,0.6-0.7,0.6h-2.3
		C135.6,26.4,135.3,26.2,135.3,25.9L135.3,25.9z"/>
	<path class="st239" d="M125.4,25.9c0-0.4,0.4-0.6,0.6-0.6h7.8c0.4,0,0.6,0.2,0.6,0.6c0,0.4-0.2,0.6-0.6,0.6H126
		C125.8,26.4,125.4,26.2,125.4,25.9L125.4,25.9z"/>
	<path class="st240" d="M131.7,17c0-0.4,0.2-0.6,0.6-0.6h2.5c0.2,0,0.6,0.2,0.6,0.6s-0.4,0.7-0.6,0.7h-2.5
		C131.9,17.7,131.7,17.3,131.7,17L131.7,17z"/>
	<path class="st240" d="M142,17c0-0.4,0.2-0.6,0.6-0.6h2.5c0.2,0,0.6,0.2,0.6,0.6s-0.4,0.7-0.6,0.7h-2.5C142.2,17.7,142,17.3,142,17
		L142,17z"/>
	<path class="st240" d="M121.9,17c0-0.4,0.2-0.6,0.6-0.6h2.5c0.4,0,0.6,0.2,0.6,0.6s-0.2,0.7-0.6,0.7h-2.5
		C122.1,17.7,121.9,17.3,121.9,17L121.9,17z"/>
	<path class="st239" d="M109.4,27.3c-0.1-0.2,0-0.7,0.2-0.8l2.1-1.1c0.4-0.2,0.7-0.1,0.8,0.2c0.2,0.2,0.1,0.6-0.2,0.8l-2.1,1.1
		C110,27.7,109.5,27.6,109.4,27.3L109.4,27.3z"/>
	<path class="st239" d="M137.8,8.9c0-0.2,0.1-0.5,0.4-0.5h1.2c0.1,0,0.4,0.2,0.4,0.5c0,0.1-0.2,0.4-0.4,0.4h-1.2
		C137.9,9.3,137.8,9,137.8,8.9L137.8,8.9z"/>
	<path class="st239" d="M131.7,8.9c0-0.2,0.1-0.5,0.2-0.5h5.1c0.1,0,0.2,0.2,0.2,0.5c0,0.1-0.1,0.4-0.2,0.4h-5.1
		C131.8,9.3,131.7,9,131.7,8.9L131.7,8.9z"/>
	<path class="st241" d="M146.7,7.6h2c4,0,7.2,3.3,7.2,7.2v12.7c0.9,1.2,1.5,2.6,1.5,4v1.2c0,3.3-2.8,6.1-6.1,6.1h-1.3
		c-1.6,1.9-4.2,3-6.9,3c-2.8,0-5.3-1.2-6.9-3h-9.8c-1.8,1.9-4.2,3-7,3c-2.7,0-5.1-1.2-6.9-3h-5.3c-3.4,0-6.1-2.8-6.1-6.1v-1.2
		c0-1.4,0.6-2.8,1.5-4v-0.2c0-2.5,1.4-4.9,3.7-6l2.9-1.4l5.7-8.8c1.4-2.2,3.9-3.6,6.5-3.6h0.9c0.4-1.8,1.6-3.4,3.4-4
		c2.5-0.7,5-1.1,7.6-1.1h7.8C144.3,2.6,146.2,5,146.7,7.6L146.7,7.6z"/>
</g>
</svg>
